<!DOCTYPE svg PUBLIC "-//W3C//DTD SVG 1.1//EN" "http://www.w3.org/Graphics/SVG/1.1/DTD/svg11.dtd">
<!-- Uploaded to: SVG Repo, www.svgrepo.com, Transformed by: SVG Repo Mixer Tools -->
<svg fill="#b7b7b7" width="33px" height="33px" viewBox="-6.5 -1 32 32" version="1.1" xmlns="http://www.w3.org/2000/svg" stroke="#b7b7b7">

<g id="SVGRepo_bgCarrier" stroke-width="0"/>

<g id="SVGRepo_tracerCarrier" stroke-linecap="round" stroke-linejoin="round"/>

<g id="SVGRepo_iconCarrier"> <title>bold</title> <path d="M0 25.531v1.344c1.063-0.031 1.938-0.063 2.563-0.094 0.625 0 1.094-0.031 1.313-0.031 1.656-0.125 3.063-0.219 4.281-0.188l2.813 0.063c2.438 0 4.25-0.313 5.75-1 0.719-0.344 1.344-0.844 1.969-1.531 0.469-0.469 0.813-1.031 1.031-1.656 0.25-0.844 0.375-1.594 0.375-2.281 0-2.5-1.719-4.625-5.094-5.406 0.531-0.25 1.031-0.5 1.375-0.688s0.625-0.313 0.781-0.438c1.188-0.875 1.781-1.906 1.781-3.281 0-0.594-0.094-1.188-0.281-1.719-0.375-1.094-1.219-2-2.406-2.563-0.531-0.313-1.031-0.469-1.375-0.531-0.938-0.25-1.844-0.375-2.719-0.375h-1.094c-0.219 0-0.406 0-0.531-0.031h-0.5c-0.063 0-0.156 0-0.25 0.031h-0.625l-5.406 0.156-3.719 0.094 0.063 1.188c0.875 0.125 1.406 0.188 1.625 0.188 0.438 0 0.781 0.094 0.969 0.219 0.094 0 0.156 0.063 0.188 0.125 0.063 0.219 0.125 0.688 0.156 1.563 0.063 1.563 0.063 2.813 0.063 3.75 0.031 0.969 0.031 1.625 0.094 2v7.031c0 1.219-0.031 2.125-0.156 2.75-0.031 0.219-0.125 0.438-0.281 0.688-0.438 0.188-1 0.375-1.75 0.469-0.375 0.063-0.719 0.125-1 0.156zM7.719 14.281v-2.469c0.063-1.719 0-2.969-0.031-3.969-0.063-0.438-0.063-0.844-0.063-1.063 0.75-0.156 1.344-0.219 1.844-0.219 1.625 0 2.844 0.344 3.656 1.094 0.813 0.688 1.219 1.563 1.219 2.656 0 2.969-1.75 4.094-5.063 4.094-0.563 0-1.094-0.031-1.563-0.125zM7.719 20.406v-4.5c0.313-0.063 0.75-0.125 1.438-0.125 1.594-0.031 2.813 0.125 3.563 0.438 1.531 0.563 2.594 2.188 2.594 4.344 0 1.031-0.219 1.844-0.563 2.563-0.375 0.719-0.906 1.219-1.719 1.594-1.656 0.781-3.719 0.719-5.125 0.125-0.094-0.25-0.125-0.438-0.125-0.594z"/> </g>

</svg>