<!DOCTYPE svg PUBLIC "-//W3C//DTD SVG 1.1//EN" "http://www.w3.org/Graphics/SVG/1.1/DTD/svg11.dtd">
<!-- Uploaded to: SVG Repo, www.svgrepo.com, Transformed by: SVG Repo Mixer Tools -->
<svg width="30px" height="30px" viewBox="0 -0.5 20 20" xmlns="http://www.w3.org/2000/svg" fill="#000000">

<g id="SVGRepo_bgCarrier" stroke-width="0"/>

<g id="SVGRepo_tracerCarrier" stroke-linecap="round" stroke-linejoin="round"/>

<g id="SVGRepo_iconCarrier">

<path d="M3 2a1 1 0 00-1 1v3a1 1 0 002 0 2 2 0 012-2h2v10.999A1 1 0 017 16h-.001A1 1 0 007 18h6a1 1 0 100-2 1 1 0 01-1-1V4h2a2 2 0 012 2 1 1 0 102 0V3a1 1 0 00-1-1H3z" fill="#b7b7b7"/>

</g>

</svg>